<?xml version="1.0" encoding="UTF-8"?>
<svg width="30px" height="30px" viewBox="0 0 30 30" version="1.1" xmlns="http://www.w3.org/2000/svg" xmlns:xlink="http://www.w3.org/1999/xlink">
    <title>warning-circle</title>
    <defs>
        <path d="M14.2222222,0 C22.0769387,0 28.4444444,6.36750578 28.4444444,14.2222222 C28.4444444,22.0769387 22.0769387,28.4444444 14.2222222,28.4444444 C6.36750578,28.4444444 0,22.0769387 0,14.2222222 C0,6.36750578 6.36750578,0 14.2222222,0 Z M14.2222222,1.77777778 C7.34934534,1.77777778 1.77777778,7.34934534 1.77777778,14.2222222 C1.77777778,21.0950991 7.34934534,26.6666667 14.2222222,26.6666667 C21.0950991,26.6666667 26.6666667,21.0950991 26.6666667,14.2222222 C26.6666667,7.34934534 21.0950991,1.77777778 14.2222222,1.77777778 Z M14.3111111,19.8222222 C14.9983988,19.8222222 15.5555556,20.379379 15.5555556,21.0666667 C15.5555556,21.7539544 14.9983988,22.3111111 14.3111111,22.3111111 C13.6238234,22.3111111 13.0666667,21.7539544 13.0666667,21.0666667 C13.0666667,20.379379 13.6238234,19.8222222 14.3111111,19.8222222 Z M15.2354955,6.13333333 C15.4162369,6.13333333 15.5596331,6.27309028 15.5553171,6.46619216 L15.2920532,18.244919 C15.2879444,18.4287518 15.1318355,18.5777778 14.9631057,18.5777778 L13.659119,18.5777778 C13.4815551,18.5777778 13.3344874,18.4380208 13.3301714,18.244919 L13.0669075,6.46619216 C13.0627987,6.28235931 13.1940556,6.13333333 13.3867292,6.13333333 L15.2354955,6.13333333 Z" id="path-1"></path>
    </defs>
    <g id="Page-1" stroke="none" stroke-width="1" fill="none" fill-rule="evenodd">
        <g id="紧凑版" transform="translate(-33.000000, -201.000000)">
            <g id="通知栏-/-自定义样式-/-警告提示" transform="translate(0.000000, 176.000000)">
                <g id="warning-circle" transform="translate(33.777778, 25.777778)">
                    <mask id="mask-2" fill="white">
                        <use xlink:href="#path-1"></use>
                    </mask>
                    <g></g>
                    <g id="color" mask="url(#mask-2)" fill="#000000">
                        <g transform="translate(-1.777778, -1.777778)" id="矩形">
                            <rect x="0" y="0" width="32" height="32"></rect>
                        </g>
                    </g>
                </g>
            </g>
        </g>
    </g>
</svg>